<svg width="100%" height="100%" viewBox="0 0 79 36" fill="none" xmlns="http://www.w3.org/2000/svg">
<path d="M69.1504 5.74805C63.7403 5.74805 59.339 10.0958 59.339 15.8891V33.0431L64.4309 32.1153V26.4621C64.4309 26.4621 67.3153 25.9572 69.1504 25.6294C75.6626 24.466 79.1106 20.6335 78.9632 15.1953C78.8026 9.2686 73.7295 5.74805 69.1504 5.74805ZM73.964 15.5735C73.8162 18.8315 71.6313 20.0406 69.0189 20.5261C66.4343 21.0064 64.4305 21.3152 64.4305 21.3152V15.5079C64.4305 12.9639 66.4906 10.8879 69.0189 10.7875C71.7034 10.6809 74.0918 12.7571 73.964 15.5735Z" fill="#6D36FB"/>
<path d="M52.4462 10.2786V28.0417L57.4578 27.1551V9.38796L52.4462 10.2786Z" fill="#6D36FB"/>
<path d="M57.8314 5.29407C58.4901 3.69498 57.7349 1.8617 56.1447 1.19934C54.5544 0.536975 52.7313 1.29634 52.0726 2.89543C51.4139 4.49452 52.1691 6.32779 53.7593 6.99016C55.3496 7.65252 57.1727 6.89316 57.8314 5.29407Z" fill="#6D36FB"/>
<path d="M41.0405 10.7834C39.7111 10.7827 38.3962 11.0618 37.1806 11.6028C35.9649 12.1438 34.8753 12.9348 33.9819 13.9247C33.0886 14.9147 32.4112 16.0818 31.9935 17.3509C31.5757 18.6199 31.4268 19.9629 31.5562 21.2933C31.6857 22.6238 32.0908 23.9122 32.7453 25.0758C33.3999 26.2393 34.2894 27.2522 35.3567 28.0492C36.424 28.8462 37.6454 29.4097 38.9423 29.7034C40.2393 29.9972 41.583 30.0146 42.887 29.7547L42.8864 29.7575L50.5551 28.3789C50.5551 28.3789 50.5646 20.4867 50.5646 20.3605C50.5617 17.8214 49.5574 15.3871 47.7719 13.5917C45.9864 11.7963 43.5656 10.7863 41.0405 10.7834ZM45.8428 24.6503L41.9713 25.3454V25.344C41.0004 25.5369 39.9939 25.4234 39.0896 25.0191C38.1853 24.6148 37.4273 23.9394 36.9193 23.0853C36.4114 22.2312 36.1783 21.2401 36.2519 20.2477C36.3255 19.2553 36.7023 18.31 37.3306 17.5411C37.959 16.7723 38.8083 16.2174 39.7622 15.9525C40.7162 15.6876 41.7283 15.7255 42.66 16.0611C43.5917 16.3967 44.3975 17.0136 44.9672 17.8274C45.5369 18.6411 45.8426 19.612 45.8426 20.6072L45.8428 24.6503Z" fill="#6D36FB"/>
<path d="M30.0747 12.2954C24.9792 12.6758 20.9477 16.9634 20.9477 22.183V33.3545L25.9824 32.4653V22.183C25.9824 19.8023 27.7921 17.757 30.0747 17.388V12.2954Z" fill="#6D36FB"/>
<path d="M9.81827 16.2545C9.35072 16.2547 8.88379 16.2886 8.42104 16.3558L8.42362 16.3542L8.38713 16.3608C8.17815 16.3917 7.97137 16.4293 7.76677 16.4734L5.01154 16.9733V9.77466L0 10.6667V26.1275C3.28806e-05 28.0801 0.575892 29.9889 1.65476 31.6125C2.73362 33.236 4.26704 34.5014 6.0611 35.2487C7.85515 35.9959 9.82928 36.1914 11.7338 35.8104C13.6384 35.4294 15.3878 34.4891 16.7609 33.1084C18.134 31.7276 19.0691 29.9685 19.4479 28.0533C19.8267 26.1382 19.6323 24.1531 18.8892 22.3491C18.146 20.5451 16.8876 19.0032 15.273 17.9183C13.6584 16.8335 11.7601 16.2545 9.81827 16.2545ZM9.80847 30.9702C8.53172 30.9661 7.30872 30.453 6.40775 29.5433C5.50679 28.6337 5.00144 27.4018 5.00257 26.1179C5.00257 26.0541 5.00515 25.9909 5.00772 25.9276L5.01553 22.0636L8.89443 21.3745V21.3759C9.5539 21.2461 10.2331 21.2566 10.8883 21.4067C11.5435 21.5567 12.1602 21.843 12.6988 22.247C13.2373 22.6511 13.6858 23.1641 14.0154 23.7529C14.345 24.3418 14.5484 24.9934 14.6125 25.6661C14.6766 26.3387 14.6 27.0174 14.3876 27.6584C14.1753 28.2995 13.8318 28.8888 13.3793 29.3883C12.9269 29.8879 12.3755 30.2868 11.7605 30.5592C11.1456 30.8316 10.4808 30.9716 9.8088 30.9702H9.80847Z" fill="#6D36FB"/>
</svg>
